# xmcd CD database file
#
# Track frame offsets:
#	150
#	19553
#	37737
#	58851
#	70671
#	91299
#	119947
#	132846
#	149456
#	166902
#	182331
#	214062
#	229963
#	245191
#	265582
#
# Disc length: 3794 seconds
#
# Revision: 0
# Processed by: cddbd v1.5.2PL0 Copyright (c) Steve Scherf et al.
# Submitted via: CDex 1.70beta2
#
DISCID=d40ed00f
DTITLE=Mojo Blues Band - Walk the bridge [CD1]
DYEAR=2014
DGENRE=Blues
TTITLE0=Wild, wild woman
TTITLE1=She's a hot Mamacita
TTITLE2=Facebook Blues
TTITLE3=The Crawl
TTITLE4=Give me a J-45
TTITLE5=Walk the bridge
TTITLE6=I'm coming home
TTITLE7=Paul's shuffle
TTITLE8=Your funeral and my trial
TTITLE9=Alimony, Alimony
TTITLE10=You must be travelling on
TTITLE11=I'll see it through
TTITLE12=I ain't funny that way
TTITLE13=I wish I could
TTITLE14=Waddlin' duck
EXTD=YEAR: 2014
EXTT0=
EXTT1=
EXTT2=
EXTT3=
EXTT4=
EXTT5=
EXTT6=
EXTT7=
EXTT8=
EXTT9=
EXTT10=
EXTT11=
EXTT12=
EXTT13=
EXTT14=
PLAYORDER=
